name rise30.2954peak35.7071fall66.7804.mot
datacolumns 19
datarows 36
range 6.18998200000000 6.24832700000000
endheader
time	ground_force1_vx	ground_force1_vy	ground_force1_vz	ground_force1_px	ground_force1_py	ground_force1_pz	ground_force2_vx	ground_force2_vy	ground_force2_vz	ground_force2_px	ground_force2_py	ground_force2_pz	ground_torque1_x	ground_torque1_y	ground_torque1_z	ground_torque2_x	ground_torque2_y	ground_torque2_z	
6.18998200000000	54.77184000000000	745.25689499999999	59.34143700000000	0.31811000000000	0.00000000000000	0.11829600000000	0.00000000000000	0.00000000000000	0.00000000000000	0.00000000000000	0.00000000000000	0.00000000000000	0.00000000000000	23.06896400000000	0.00000000000000	0.00000000000000	0.00000000000000	0.00000000000000	
6.19164700000000	54.10597800000000	748.33984399999997	59.46140500000000	0.31734200000000	0.00000000000000	0.11823400000000	0.00000000000000	0.00000000000000	0.00000000000000	0.00000000000000	0.00000000000000	0.00000000000000	0.00000000000000	23.17289300000000	0.00000000000000	0.00000000000000	0.00000000000000	0.00000000000000	
6.19333600000000	53.44883600000000	751.30001600000003	59.57799200000000	0.31661700000000	0.00000000000000	0.11817300000000	0.00000000000000	0.00000000000000	0.00000000000000	0.00000000000000	0.00000000000000	0.00000000000000	0.00000000000000	23.27705800000000	0.00000000000000	0.00000000000000	0.00000000000000	0.00000000000000	
6.19498000000000	52.80067300000000	754.13433599999996	59.69118800000000	0.31593300000000	0.00000000000000	0.11811200000000	0.00000000000000	0.00000000000000	0.00000000000000	0.00000000000000	0.00000000000000	0.00000000000000	0.00000000000000	23.38134900000000	0.00000000000000	0.00000000000000	0.00000000000000	0.00000000000000	
6.19665100000000	52.16164900000000	756.83989199999996	59.80092200000000	0.31528800000000	0.00000000000000	0.11805100000000	0.00000000000000	0.00000000000000	0.00000000000000	0.00000000000000	0.00000000000000	0.00000000000000	0.00000000000000	23.48561800000000	0.00000000000000	0.00000000000000	0.00000000000000	0.00000000000000	
6.19832300000000	51.53183700000000	759.41395699999998	59.90707000000000	0.31467900000000	0.00000000000000	0.11799000000000	0.00000000000000	0.00000000000000	0.00000000000000	0.00000000000000	0.00000000000000	0.00000000000000	0.00000000000000	23.58968100000000	0.00000000000000	0.00000000000000	0.00000000000000	0.00000000000000	
6.19997900000000	50.91122600000000	761.85399700000005	60.00945100000000	0.31410300000000	0.00000000000000	0.11793000000000	0.00000000000000	0.00000000000000	0.00000000000000	0.00000000000000	0.00000000000000	0.00000000000000	0.00000000000000	23.69332000000000	0.00000000000000	0.00000000000000	0.00000000000000	0.00000000000000	
6.20164900000000	50.29972200000000	764.15769499999999	60.10784000000000	0.31355800000000	0.00000000000000	0.11787000000000	0.00000000000000	0.00000000000000	0.00000000000000	0.00000000000000	0.00000000000000	0.00000000000000	0.00000000000000	23.79628600000000	0.00000000000000	0.00000000000000	0.00000000000000	0.00000000000000	
6.20332200000000	49.69715900000000	766.32296499999995	60.20196600000000	0.31304000000000	0.00000000000000	0.11781100000000	0.00000000000000	0.00000000000000	0.00000000000000	0.00000000000000	0.00000000000000	0.00000000000000	0.00000000000000	23.89830100000000	0.00000000000000	0.00000000000000	0.00000000000000	0.00000000000000	
6.20497700000000	49.10330200000000	768.34796200000005	60.29151800000000	0.31254800000000	0.00000000000000	0.11775300000000	0.00000000000000	0.00000000000000	0.00000000000000	0.00000000000000	0.00000000000000	0.00000000000000	0.00000000000000	23.99906000000000	0.00000000000000	0.00000000000000	0.00000000000000	0.00000000000000	
6.20664300000000	48.51785200000000	770.23109799999997	60.37615200000000	0.31207600000000	0.00000000000000	0.11769600000000	0.00000000000000	0.00000000000000	0.00000000000000	0.00000000000000	0.00000000000000	0.00000000000000	0.00000000000000	24.09823700000000	0.00000000000000	0.00000000000000	0.00000000000000	0.00000000000000	
6.20832400000000	47.94045500000000	771.97105299999998	60.45549500000000	0.31162300000000	0.00000000000000	0.11764100000000	0.00000000000000	0.00000000000000	0.00000000000000	0.00000000000000	0.00000000000000	0.00000000000000	0.00000000000000	24.19548500000000	0.00000000000000	0.00000000000000	0.00000000000000	0.00000000000000	
6.20998000000000	47.37070600000000	773.56678399999998	60.52914800000000	0.31118500000000	0.00000000000000	0.11758600000000	0.00000000000000	0.00000000000000	0.00000000000000	0.00000000000000	0.00000000000000	0.00000000000000	0.00000000000000	24.29044000000000	0.00000000000000	0.00000000000000	0.00000000000000	0.00000000000000	
6.21164300000000	46.80815500000000	775.01753599999995	60.59669300000000	0.31075900000000	0.00000000000000	0.11753300000000	0.00000000000000	0.00000000000000	0.00000000000000	0.00000000000000	0.00000000000000	0.00000000000000	0.00000000000000	24.38272400000000	0.00000000000000	0.00000000000000	0.00000000000000	0.00000000000000	
6.21332600000000	46.25231600000000	776.32284600000003	60.65769900000000	0.31034200000000	0.00000000000000	0.11748200000000	0.00000000000000	0.00000000000000	0.00000000000000	0.00000000000000	0.00000000000000	0.00000000000000	0.00000000000000	24.47195100000000	0.00000000000000	0.00000000000000	0.00000000000000	0.00000000000000	
6.21497600000000	45.70267200000000	777.48255300000005	60.71172500000000	0.30992900000000	0.00000000000000	0.11743100000000	0.00000000000000	0.00000000000000	0.00000000000000	0.00000000000000	0.00000000000000	0.00000000000000	0.00000000000000	24.55772400000000	0.00000000000000	0.00000000000000	0.00000000000000	0.00000000000000	
6.21664400000000	45.15868200000000	778.49679900000001	60.75832600000000	0.30951800000000	0.00000000000000	0.11738300000000	0.00000000000000	0.00000000000000	0.00000000000000	0.00000000000000	0.00000000000000	0.00000000000000	0.00000000000000	24.63964500000000	0.00000000000000	0.00000000000000	0.00000000000000	0.00000000000000	
6.21832300000000	44.61978700000000	779.36603300000002	60.79705800000000	0.30910500000000	0.00000000000000	0.11733700000000	0.00000000000000	0.00000000000000	0.00000000000000	0.00000000000000	0.00000000000000	0.00000000000000	0.00000000000000	24.71731400000000	0.00000000000000	0.00000000000000	0.00000000000000	0.00000000000000	
6.21997700000000	44.08541500000000	780.09101399999997	60.82748400000000	0.30868700000000	0.00000000000000	0.11729200000000	0.00000000000000	0.00000000000000	0.00000000000000	0.00000000000000	0.00000000000000	0.00000000000000	0.00000000000000	24.79033500000000	0.00000000000000	0.00000000000000	0.00000000000000	0.00000000000000	
6.22165000000000	43.55499100000000	780.67280800000003	60.84917700000000	0.30826200000000	0.00000000000000	0.11724900000000	0.00000000000000	0.00000000000000	0.00000000000000	0.00000000000000	0.00000000000000	0.00000000000000	0.00000000000000	24.85831600000000	0.00000000000000	0.00000000000000	0.00000000000000	0.00000000000000	
6.22332200000000	43.02794000000000	781.11279000000002	60.86172400000000	0.30782400000000	0.00000000000000	0.11720800000000	0.00000000000000	0.00000000000000	0.00000000000000	0.00000000000000	0.00000000000000	0.00000000000000	0.00000000000000	24.92087600000000	0.00000000000000	0.00000000000000	0.00000000000000	0.00000000000000	
6.22497700000000	42.50369400000000	781.41264100000001	60.86473400000000	0.30737200000000	0.00000000000000	0.11717000000000	0.00000000000000	0.00000000000000	0.00000000000000	0.00000000000000	0.00000000000000	0.00000000000000	0.00000000000000	24.97764600000000	0.00000000000000	0.00000000000000	0.00000000000000	0.00000000000000	
6.22664900000000	41.98169800000000	781.57434000000001	60.85783800000000	0.30690300000000	0.00000000000000	0.11713300000000	0.00000000000000	0.00000000000000	0.00000000000000	0.00000000000000	0.00000000000000	0.00000000000000	0.00000000000000	25.02827100000000	0.00000000000000	0.00000000000000	0.00000000000000	0.00000000000000	
6.22832300000000	41.46141400000000	781.60016299999995	60.84069400000000	0.30641200000000	0.00000000000000	0.11709900000000	0.00000000000000	0.00000000000000	0.00000000000000	0.00000000000000	0.00000000000000	0.00000000000000	0.00000000000000	25.07241400000000	0.00000000000000	0.00000000000000	0.00000000000000	0.00000000000000	
6.22998300000000	40.94232700000000	781.49267599999996	60.81299100000000	0.30589900000000	0.00000000000000	0.11706800000000	0.00000000000000	0.00000000000000	0.00000000000000	0.00000000000000	0.00000000000000	0.00000000000000	0.00000000000000	25.10976000000000	0.00000000000000	0.00000000000000	0.00000000000000	0.00000000000000	
6.23164900000000	40.42395100000000	781.25472300000001	60.77445500000000	0.30535900000000	0.00000000000000	0.11703800000000	0.00000000000000	0.00000000000000	0.00000000000000	0.00000000000000	0.00000000000000	0.00000000000000	0.00000000000000	25.14001700000000	0.00000000000000	0.00000000000000	0.00000000000000	0.00000000000000	
6.23331100000000	39.90583000000000	780.88942099999997	60.72484400000000	0.30479000000000	0.00000000000000	0.11701100000000	0.00000000000000	0.00000000000000	0.00000000000000	0.00000000000000	0.00000000000000	0.00000000000000	0.00000000000000	25.16291900000000	0.00000000000000	0.00000000000000	0.00000000000000	0.00000000000000	
6.23498300000000	39.38754600000000	780.40015000000005	60.66396000000000	0.30419000000000	0.00000000000000	0.11698600000000	0.00000000000000	0.00000000000000	0.00000000000000	0.00000000000000	0.00000000000000	0.00000000000000	0.00000000000000	25.17822500000000	0.00000000000000	0.00000000000000	0.00000000000000	0.00000000000000	
6.23664400000000	38.86872200000000	779.79053599999997	60.59164400000000	0.30355700000000	0.00000000000000	0.11696400000000	0.00000000000000	0.00000000000000	0.00000000000000	0.00000000000000	0.00000000000000	0.00000000000000	0.00000000000000	25.18572800000000	0.00000000000000	0.00000000000000	0.00000000000000	0.00000000000000	
6.23832300000000	38.34902200000000	779.06444599999998	60.50778300000000	0.30288900000000	0.00000000000000	0.11694500000000	0.00000000000000	0.00000000000000	0.00000000000000	0.00000000000000	0.00000000000000	0.00000000000000	0.00000000000000	25.18525000000000	0.00000000000000	0.00000000000000	0.00000000000000	0.00000000000000	
6.23997800000000	37.82815900000000	778.22597099999996	60.41230600000000	0.30218300000000	0.00000000000000	0.11692700000000	0.00000000000000	0.00000000000000	0.00000000000000	0.00000000000000	0.00000000000000	0.00000000000000	0.00000000000000	25.17664700000000	0.00000000000000	0.00000000000000	0.00000000000000	0.00000000000000	
6.24164800000000	37.30589200000000	777.27941399999997	60.30519200000000	0.30143800000000	0.00000000000000	0.11691300000000	0.00000000000000	0.00000000000000	0.00000000000000	0.00000000000000	0.00000000000000	0.00000000000000	0.00000000000000	25.15980900000000	0.00000000000000	0.00000000000000	0.00000000000000	0.00000000000000	
6.24332600000000	36.78203400000000	776.22927100000004	60.18646300000000	0.30065300000000	0.00000000000000	0.11690100000000	0.00000000000000	0.00000000000000	0.00000000000000	0.00000000000000	0.00000000000000	0.00000000000000	0.00000000000000	25.13465900000000	0.00000000000000	0.00000000000000	0.00000000000000	0.00000000000000	
6.24498200000000	36.25645000000000	775.08022200000005	60.05619000000000	0.29982600000000	0.00000000000000	0.11689100000000	0.00000000000000	0.00000000000000	0.00000000000000	0.00000000000000	0.00000000000000	0.00000000000000	0.00000000000000	25.10116000000000	0.00000000000000	0.00000000000000	0.00000000000000	0.00000000000000	
6.24664400000000	35.72905800000000	773.83710900000005	59.91449200000000	0.29895600000000	0.00000000000000	0.11688400000000	0.00000000000000	0.00000000000000	0.00000000000000	0.00000000000000	0.00000000000000	0.00000000000000	0.00000000000000	25.05930800000000	0.00000000000000	0.00000000000000	0.00000000000000	0.00000000000000	
6.24832700000000	35.19983400000000	772.50492599999995	59.76153400000000	0.29804300000000	0.00000000000000	0.11687900000000	0.00000000000000	0.00000000000000	0.00000000000000	0.00000000000000	0.00000000000000	0.00000000000000	0.00000000000000	25.00913600000000	0.00000000000000	0.00000000000000	0.00000000000000	0.00000000000000	
